<svg width="45" height="45" viewBox="0 0 45 45" fill="none" xmlns="http://www.w3.org/2000/svg">
<path fill-rule="evenodd" clip-rule="evenodd" d="M22.6517 0.901656C28.0001 0.921794 33.1173 2.89115 37.0834 6.44776C41.6915 10.5791 44.3346 16.4995 44.3346 22.6906C44.3346 28.8821 41.691 34.8026 37.0819 38.9344L37.0773 38.9375C33.0895 42.5117 27.945 44.4795 22.5929 44.4795C22.2462 44.4795 21.9015 44.4707 21.5589 44.4547C9.94637 43.9089 0.850708 34.3487 0.850708 22.6906C0.850708 10.6756 10.6043 0.900623 22.5929 0.900623C22.5991 0.900623 22.645 0.90114 22.6517 0.901656ZM21.6542 42.3913C11.1448 41.8972 2.91158 33.2437 2.91158 22.6906C2.91158 11.8147 11.7404 2.96602 22.612 2.96654L22.6666 2.96705C24.3879 2.97325 26.0851 3.20509 27.7193 3.64657C22.7928 3.7643 18.1605 6.19682 14.9888 10.3261C12.474 13.3007 10.9732 17.621 10.8712 22.2016V23.2028C10.9732 27.7497 12.4679 32.0618 14.9734 35.037C18.1739 39.1915 22.8011 41.6168 27.7209 41.7345C25.7651 42.2633 23.6898 42.4884 21.6542 42.3913ZM35.7629 37.3425C33.446 38.8662 30.7973 39.6738 28.0955 39.6738C23.6733 39.6738 19.4805 37.5175 16.5922 33.758L16.5618 33.7203C14.3463 31.0993 13.0233 27.2489 12.9321 23.1795L12.9315 22.2248C13.0233 18.1317 14.3463 14.2813 16.5917 11.6231C19.4805 7.86359 23.6739 5.70732 28.0955 5.70732C30.7973 5.70732 33.4465 6.51489 35.7645 8.03967C39.9012 11.7775 42.2738 17.1119 42.2738 22.6906C42.2738 28.2697 39.9007 33.6046 35.7629 37.3425Z" fill="#FA1E4E"/>
<path d="M26.5775 8.9644C30.4562 11.4606 33.1269 16.6804 33.1269 22.7184C33.1269 28.7565 30.4562 33.9768 26.5775 36.4725C31.5286 36.0613 35.4577 30.0614 35.4577 22.7184C35.4577 15.3754 31.5286 9.37562 26.5775 8.9644Z" fill="#FA1E4E"/>
</svg>
