<svg width="52" height="52" viewBox="0 0 52 52" fill="none" xmlns="http://www.w3.org/2000/svg">
<mask id="mask0" mask-type="alpha" maskUnits="userSpaceOnUse" x="0" y="0" width="52" height="52">
<circle cx="26" cy="26" r="26" fill="#FF8370"/>
</mask>
<g mask="url(#mask0)">
<rect x="-18" width="88" height="52" rx="8" fill="#85CEFF"/>
<path fill-rule="evenodd" clip-rule="evenodd" d="M14.6666 17.6667C13.5621 17.6667 12.6666 18.5622 12.6666 19.6667V31.963C12.6666 33.0676 13.5621 33.963 14.6666 33.963H37.3333C38.4379 33.963 39.3333 33.0676 39.3333 31.963V19.6667C39.3333 18.5622 38.4379 17.6667 37.3333 17.6667H14.6666ZM30.6721 23.6245L33.1504 27.3745V23.5898C33.1504 23.3438 33.2032 23.1594 33.3089 23.0364C33.4145 22.9134 33.557 22.8519 33.7364 22.8519C33.9216 22.8519 34.0677 22.9134 34.1747 23.0364C34.2818 23.1594 34.3353 23.3438 34.3353 23.5898V28.5941C34.3353 29.1526 34.1038 29.4318 33.6409 29.4318C33.5251 29.4318 33.421 29.4152 33.3284 29.3819C33.2358 29.3486 33.149 29.2958 33.068 29.2235C32.9869 29.1511 32.9117 29.0665 32.8423 28.9696C32.7728 28.8726 32.7034 28.7735 32.6339 28.6723L30.2164 24.9657V28.694C30.2164 28.937 30.16 29.1207 30.0471 29.2452C29.9343 29.3696 29.7896 29.4318 29.6131 29.4318C29.4308 29.4318 29.2847 29.3689 29.1747 29.243C29.0648 29.1171 29.0098 28.9341 29.0098 28.694V23.7851C29.0098 23.5768 29.033 23.4133 29.0793 23.2946C29.1342 23.1644 29.2254 23.0581 29.3527 22.9756C29.48 22.8932 29.6174 22.8519 29.765 22.8519C29.8808 22.8519 29.9799 22.8707 30.0623 22.9084C30.1448 22.946 30.2171 22.9966 30.2793 23.0603C30.3415 23.1239 30.4052 23.2064 30.4703 23.3077C30.5354 23.4089 30.6027 23.5146 30.6721 23.6245ZM18.4827 23.6983L19.9236 27.9648L21.3689 23.6679C21.4442 23.4422 21.5006 23.2852 21.5382 23.197C21.5758 23.1087 21.638 23.0292 21.7248 22.9583C21.8116 22.8874 21.9303 22.8519 22.0807 22.8519C22.1907 22.8519 22.2927 22.8794 22.3867 22.9344C22.4808 22.9894 22.5546 23.0624 22.6081 23.1536C22.6616 23.2447 22.6884 23.3366 22.6884 23.4292C22.6884 23.4929 22.6797 23.5616 22.6623 23.6354C22.645 23.7091 22.6233 23.7815 22.5972 23.8524C22.5712 23.9233 22.5452 23.9963 22.5191 24.0716L20.9783 28.2295C20.9233 28.3887 20.8684 28.5399 20.8134 28.6831C20.7584 28.8263 20.6947 28.9522 20.6224 29.0607C20.5501 29.1692 20.4539 29.2582 20.3338 29.3276C20.2137 29.3971 20.0669 29.4318 19.8932 29.4318C19.7196 29.4318 19.5728 29.3978 19.4527 29.3298C19.3326 29.2618 19.2357 29.1721 19.1619 29.0607C19.0881 28.9493 19.0237 28.8227 18.9688 28.6809C18.9138 28.5392 18.8588 28.3887 18.8038 28.2295L17.2891 24.1063C17.263 24.031 17.2363 23.9573 17.2088 23.8849C17.1813 23.8126 17.1581 23.7345 17.1393 23.6506C17.1205 23.5666 17.1111 23.4957 17.1111 23.4379C17.1111 23.2903 17.1704 23.1558 17.2891 23.0342C17.4077 22.9127 17.5567 22.8519 17.7361 22.8519C17.956 22.8519 18.1116 22.9192 18.2027 23.0538C18.2938 23.1883 18.3872 23.4032 18.4827 23.6983ZM25.8295 26.845H24.649V28.6462C24.649 28.9037 24.5882 29.099 24.4667 29.2321C24.3451 29.3652 24.1918 29.4318 24.0066 29.4318C23.8127 29.4318 23.6565 29.366 23.5379 29.2343C23.4192 29.1027 23.3599 28.9095 23.3599 28.6549V23.7504C23.3599 23.4668 23.425 23.2643 23.5552 23.1427C23.6854 23.0212 23.8923 22.9604 24.1759 22.9604H25.8295C26.3185 22.9604 26.6947 22.9981 26.958 23.0733C27.2184 23.1456 27.4434 23.2657 27.6329 23.4335C27.8224 23.6014 27.9664 23.8068 28.0648 24.0498C28.1631 24.2929 28.2123 24.5663 28.2123 24.8702C28.2123 25.5183 28.0127 26.0095 27.6134 26.3437C27.2141 26.6779 26.6195 26.845 25.8295 26.845ZM24.649 23.9283H25.517C26.0928 23.9283 26.4733 24.0224 26.6585 24.2104C26.8234 24.3869 26.9059 24.6155 26.9059 24.8962C26.9059 25.1306 26.8524 25.3201 26.7453 25.4648C26.6383 25.6095 26.4827 25.7136 26.2787 25.7773C26.0747 25.8409 25.8208 25.8728 25.517 25.8728H24.649V23.9283Z" fill="white"/>
</g>
</svg>
